<svg xmlns="http://www.w3.org/2000/svg" width="1400" height="700" viewBox="0 0 1400 700">
  <rect width="100%" height="100%" fill="#f6f7f9" />
  <g stroke="#1b1f22" stroke-width="2" stroke-linejoin="round" stroke-linecap="round">
    <polygon points="200,300 1300,300 1344,272 244,272" fill="#3a4046" />
    <polygon points="1300,300 1300,520 1344,492 1344,272" fill="#24282c" />
    <polygon points="200,300 1300,300 1300,520 200,520" fill="#2d3136" />
    <line x1="200" y1="361.6" x2="1300" y2="361.6" stroke="#ff7a18" stroke-width="3" />
    <line x1="200" y1="458.4" x2="1300" y2="458.4" stroke="#ff7a18" stroke-width="3" />
  </g>
  <g stroke="#1b1f22" stroke-width="2">
    <rect x="172" y="370" width="28" height="80" rx="10" ry="10" fill="#cfd3d8" />
    <circle cx="186.0" cy="410" r="11" fill="#cfd3d8" stroke="#1b1f22" />
    <circle cx="186.0" cy="410" r="5" fill="#8a9098" stroke="#1b1f22" />

    <rect x="1300" y="370" width="28" height="80" rx="10" ry="10" fill="#cfd3d8" />
    <circle cx="1314.0" cy="410" r="11" fill="#cfd3d8" stroke="#1b1f22" />
    <circle cx="1314.0" cy="410" r="5" fill="#8a9098" stroke="#1b1f22" />
  </g>
  <g font-family="Arial, Helvetica, sans-serif" text-anchor="middle">
    <text x="750.0" y="421.0" font-size="36" fill="#f4f5f7" font-weight="700">CATL PRISMATIC CELL</text>
    <text x="750.0" y="461.0" font-size="22" fill="#f4f5f7">500mm x 100mm x 20mm</text>
    <text x="750.0" y="493.0" font-size="18" fill="#f4f5f7">Terminals on left/right sides</text>
  </g>
</svg>
