<svg xmlns="http://www.w3.org/2000/svg" width="1400" height="700" viewBox="0 0 1400 700">
  <rect width="100%" height="100%" fill="#f1f6ff" />
  <g stroke="#9fb4d6" stroke-width="2" stroke-linejoin="round" stroke-linecap="round">
    <polygon points="200,300 1200,300 1240,270 240,270" fill="#f3f7ff" />
    <polygon points="1200,300 1200,500 1240,470 1240,270" fill="#cddbf2" />
    <polygon points="200,300 1200,300 1200,500 200,500" fill="#e2ecff" />
    <line x1="200" y1="356.0" x2="1200" y2="356.0" stroke="#1270ff" stroke-width="3" />
    <line x1="200" y1="444.0" x2="1200" y2="444.0" stroke="#1270ff" stroke-width="3" />
  </g>
  <g stroke="#9fb4d6" stroke-width="2">
    <rect x="160" y="370" width="40" height="60" fill="#c6ccd6" />
    <ellipse cx="160" cy="400" rx="16" ry="22" fill="#c6ccd6" stroke="#9fb4d6" />
    <ellipse cx="160" cy="400" rx="7.2" ry="9.9" fill="#7f8aa0" stroke="#9fb4d6" />

    <rect x="1200" y="370" width="40" height="60" fill="#c6ccd6" />
    <ellipse cx="1240" cy="400" rx="16" ry="22" fill="#c6ccd6" stroke="#9fb4d6" />
    <ellipse cx="1240" cy="400" rx="7.2" ry="9.9" fill="#7f8aa0" stroke="#9fb4d6" />
  </g>
  <g font-family="Arial, Helvetica, sans-serif" text-anchor="middle">
    <text x="700.0" y="410.0" font-size="36" fill="#1d2a44" font-weight="700">BYD PRISMATIC CELL</text>
    <text x="700.0" y="450.0" font-size="22" fill="#1d2a44">500mm x 100mm x 20mm</text>
    <text x="700.0" y="482.0" font-size="18" fill="#1d2a44">Terminals on left/right sides</text>
  </g>
</svg>
